<svg xmlns="http://www.w3.org/2000/svg" xmlns:xlink="http://www.w3.org/1999/xlink" width="33" height="33" viewBox="0 0 33 33"><defs><path id="s79ga" d="M390.687 926.06c-.365.135-.71.297-1.033.46-1.081.54-2.98 1.573-3.905 2.222a9.69 9.69 0 0 0-.277.203 3.188 3.188 0 0 0-.006-.507 3.097 3.097 0 0 0-.142-.621c0-.014.006-.028.013-.041.96-.527 2.844-1.433 3.864-1.838.513-.21 1.013-.19 1.486.121zm-3.925-9.468l-.952.304a6.423 6.423 0 0 1-.23 2.622l.899.466a.68.68 0 0 1 .29.913l-.48.932a.68.68 0 0 1-.911.29l-.905-.465a6.38 6.38 0 0 1-2.007 1.682l.311.98a.675.675 0 0 1-.439.852l-1 .317a.675.675 0 0 1-.85-.44l-.311-.986a6.428 6.428 0 0 1-2.601-.223l-.48.92a.68.68 0 0 1-.912.29l-.932-.48a.68.68 0 0 1-.29-.912l.48-.92a6.495 6.495 0 0 1-1.683-1.993l-.986.311a.675.675 0 0 1-.85-.44l-.318-1a.675.675 0 0 1 .439-.85l.98-.312a6.348 6.348 0 0 1 .215-2.608l-.905-.466a.68.68 0 0 1-.29-.913l.48-.932a.68.68 0 0 1 .911-.29l.899.466a6.35 6.35 0 0 1 2.006-1.703l-.304-.953a.675.675 0 0 1 .439-.852l1-.317a.675.675 0 0 1 .85.439l.305.953a6.327 6.327 0 0 1 2.627.223l.46-.879a.68.68 0 0 1 .912-.29l.932.48a.66.66 0 0 1 .283.898l-.459.879a6.468 6.468 0 0 1 1.696 2.02l.952-.304a.675.675 0 0 1 .851.44l.318 1a.675.675 0 0 1-.44.851zm-11.625.399l1.324-.054a3.044 3.044 0 0 1 3.607-2.298l.568-1.095a4.314 4.314 0 0 0-5.499 3.447zm4.965-.676a1.455 1.455 0 0 0-1.965.622 1.456 1.456 0 0 0 .621 1.966 1.456 1.456 0 0 0 1.966-.621 1.46 1.46 0 0 0-.622-1.967zm.966 5.366l-.736-1.163a3.021 3.021 0 0 1-2.303-.202 3.03 3.03 0 0 1-1.5-1.778l-1.358.061a4.33 4.33 0 0 0 2.243 2.933 4.288 4.288 0 0 0 3.654.149zm.993-7.407l-.567 1.102c.986.905 1.283 2.399.641 3.642-.128.243-.276.46-.452.649l.73 1.142c.33-.325.614-.696.837-1.129a4.326 4.326 0 0 0-1.189-5.406zm6.154 11.07c-.743.33-2.168.83-2.844 1.202l-.46.25c-.04.02-.08.054-.12.081a3.112 3.112 0 0 0-.717-.615c.628-.33 2.04-.79 2.668-1.04.507-.203 1.007-.19 1.473.121zm-12.645-17.591l-.007.717a.434.434 0 0 1-.432.425l-.662-.007a4.15 4.15 0 0 1-.608 1.44l.466.466a.42.42 0 0 1 0 .602l-.514.506a.42.42 0 0 1-.6 0l-.467-.466a4.13 4.13 0 0 1-1.445.588l-.007.662a.434.434 0 0 1-.432.426l-.716-.007a.434.434 0 0 1-.426-.432l.007-.663a4.146 4.146 0 0 1-1.439-.608l-.466.467a.42.42 0 0 1-.601 0l-.507-.514a.42.42 0 0 1 0-.601l.466-.467a4.136 4.136 0 0 1-.587-1.446l-.662-.007a.434.434 0 0 1-.426-.432l.007-.716a.434.434 0 0 1 .432-.426l.662.006c.108-.506.31-.993.608-1.439l-.466-.466a.42.42 0 0 1 0-.602l.513-.506a.42.42 0 0 1 .602 0l.466.466c.445-.29.939-.487 1.445-.588l.007-.662a.434.434 0 0 1 .432-.426l.716.007a.434.434 0 0 1 .426.432l-.007.663c.507.108.993.31 1.439.608l.466-.466a.42.42 0 0 1 .601 0l.507.513a.42.42 0 0 1 0 .601l-.466.467c.29.446.486.939.587 1.446l.662.007a.434.434 0 0 1 .426.432zm-3.675-1.027a1.911 1.911 0 1 0-2.715 2.69 1.911 1.911 0 0 0 2.715-2.69zm21.534 21.469c-.02.507-.337.96-.783 1.216l-9.092 5.319-.345.182c-1.182.622-2.438.784-3.775.642l-12.024-.52c-.21.48-.675.838-1.256.878l-2.736.183c-.912.06-1.702-.602-1.763-1.48l-.44-6.082c-.067-.879.622-1.642 1.534-1.703l2.736-.183c.58-.04 1.1.257 1.371.71 1.23-.52 3.533-1.642 7.626-.446.419.122 1.108.23 1.54.236l6.35.082c.783-.088 1.547.52 1.635 1.344.087.825-.54 1.561-1.324 1.65l-7.14.682a.401.401 0 0 0-.365.452.413.413 0 0 0 .432.338l.277-.013s4.796-.075 8.093-.777a4.774 4.774 0 0 0 1.648-.676l.263-.176c1.135-.777 2.857-1.757 4.1-2.385.345-.176 1.621-.872 2.236-.825.872.068 1.223.744 1.202 1.352zm-28.08 5.568c0-.493-.418-.899-.931-.899-.514 0-.933.399-.933.9 0 .492.42.898.933.898.513 0 .932-.406.932-.899zm5.62-16.414l-.128.48a.302.302 0 0 1-.364.21l-.446-.116a2.71 2.71 0 0 1-.662.865l.23.4a.297.297 0 0 1-.109.404l-.432.25a.297.297 0 0 1-.405-.108l-.23-.398a2.726 2.726 0 0 1-1.074.142l-.115.446a.302.302 0 0 1-.364.209l-.48-.128a.302.302 0 0 1-.21-.365l.115-.446a2.71 2.71 0 0 1-.864-.662l-.399.23a.297.297 0 0 1-.405-.109l-.25-.432a.297.297 0 0 1 .108-.406l.399-.23a2.727 2.727 0 0 1-.142-1.074l-.446-.115a.303.303 0 0 1-.21-.365l.129-.48c.04-.155.21-.25.365-.21l.446.116c.162-.338.391-.629.661-.865l-.23-.399a.297.297 0 0 1 .109-.405l.432-.25a.297.297 0 0 1 .406.108l.23.399c.337-.116.702-.17 1.073-.142l.115-.446c.04-.156.21-.25.365-.21l.48.128c.155.041.25.21.209.365l-.115.446c.338.163.628.392.864.663l.4-.23a.297.297 0 0 1 .404.108l.25.432a.297.297 0 0 1-.108.406l-.398.23c.115.338.169.702.142 1.074l.445.115c.156.04.25.21.21.365zm-3.093-1.946a1.333 1.333 0 0 0-.682 2.574 1.333 1.333 0 0 0 .682-2.574z"/></defs><g><g transform="translate(-361 -903)"><use fill="#236fbd" xlink:href="#s79ga"/></g></g></svg>