<svg xmlns="http://www.w3.org/2000/svg" xmlns:xlink="http://www.w3.org/1999/xlink" width="30" height="30" viewBox="0 0 30 30"><defs><path id="f8y6a" d="M794.635 915.474v2.451a.576.576 0 0 1-.574.576h-2.453a.576.576 0 0 1-.574-.576v-2.45c0-.317.259-.575.574-.575h2.453c.316 0 .574.258.574.574zm1.35.383h12.98v1.687h-12.98zm-1.35 5.917v2.453a.576.576 0 0 1-.574.574h-2.453a.576.576 0 0 1-.574-.574v-2.453c0-.316.259-.574.574-.574h2.453c.316 0 .574.258.574.574zm0 6.3v2.453a.576.576 0 0 1-.574.574h-2.453a.576.576 0 0 1-.574-.574v-2.452c0-.317.259-.575.574-.575h2.453c.316 0 .574.258.574.575zm-.45-.001a.126.126 0 0 0-.124-.124h-2.453a.126.126 0 0 0-.124.124v2.452c0 .068.057.125.124.125h2.453a.127.127 0 0 0 .124-.125zm7.533-4.23h-5.733v-1.687h6.082c-.167.301-.3.67-.333 1.108-.013.191-.014.386-.016.58zm-5.733 4.613h6.105c.077.207.172.403.288.588-.245.29-.337.601-.381.747l-.03.099-.614.254h-5.368zM814.4 911.3v23.4c0 1.489-1.211 2.7-2.7 2.7h-23.4a2.703 2.703 0 0 1-2.7-2.7v-23.4c0-1.489 1.212-2.7 2.7-2.7h23.4c1.489 0 2.7 1.211 2.7 2.7zm-1.8 0c0-.497-.404-.9-.9-.9h-23.4c-.496 0-.9.403-.9.9v23.4c0 .496.404.9.9.9h10.164l.509-2.705c.174-.164.38-.295.603-.413.375-.201.749-.41 1.134-.592.373-.177.758-.33 1.14-.492.36-.15.722-.294 1.078-.45a.3.3 0 0 0 .149-.153c.08-.2.148-.405.21-.61.047-.158.08-.312.28-.354.05-.01.111-.099.12-.157.041-.3.072-.601.092-.901a.29.29 0 0 0-.071-.197 1.928 1.928 0 0 1-.47-1.03c-.032-.196-.14-.378-.197-.57a12.56 12.56 0 0 1-.198-.786c-.02-.095-.008-.197-.025-.295-.021-.14-.018-.25.152-.306.048-.016.087-.128.088-.196.01-.419.004-.841.006-1.263.002-.258 0-.517.017-.776.038-.493.328-.84.691-1.14.53-.438 1.164-.641 1.818-.795.343-.082.692-.13 1.04-.187.092-.015.19-.001.285-.001l.046.072c-.072.052-.153.097-.215.159-.144.142-.13.24.022.37.316.265.63.532.936.807.27.243.375.56.375.916v1.838c0 .126-.009.25.148.305.032.012.065.082.063.12-.027.314-.062.627-.093.94a.075.075 0 0 1-.01.036c-.282.411-.317.917-.52 1.358-.006.017-.012.035-.024.05-.374.44-.257.97-.266 1.475 0 .052.037.131.079.15.152.066.19.197.232.336.067.217.132.438.226.644.034.077.137.14.223.173 1.15.441 2.285.91 3.384 1.472.218.112.407.25.567.414l.417 2.22a.894.894 0 0 0 .095-.386z"/></defs><g><g transform="translate(-785 -908)"><use fill="#236fbd" xlink:href="#f8y6a"/></g></g></svg>