<svg xmlns="http://www.w3.org/2000/svg" xmlns:xlink="http://www.w3.org/1999/xlink" width="31" height="27" viewBox="0 0 31 27"><defs><path id="s5qqa" d="M1236.703 922.417v8.198a.678.678 0 0 1-.327.577l-3.648 2.234a.716.716 0 0 1-.713.02.68.68 0 0 1-.362-.597v-7.789l-10.637-5.88-5.95 3.643 9.974 5.514 4.837-2.962c.327-.2.76-.105.967.214a.671.671 0 0 1-.22.94l-5.192 3.18a.714.714 0 0 1-.72.016l-11.357-6.28a.679.679 0 0 1-.355-.577.677.677 0 0 1 .328-.592l7.296-4.469.005-.003 3.643-2.231.004-.003 7.291-4.466a.718.718 0 0 1 .72-.015l11.358 6.279a.679.679 0 0 1 .354.577.677.677 0 0 1-.327.593l-5.192 3.18a.713.713 0 0 1-.967-.214.671.671 0 0 1 .22-.94l4.2-2.573-9.974-5.514-5.949 3.643 10.333 5.713a.739.739 0 0 1 .077.05.697.697 0 0 1 .068.056l.012.01c.02.02.039.04.056.062l.007.009c.011.015.023.03.033.046l.007.012.013.022c.01.018.019.035.027.053l.01.021c.01.025.019.05.026.075v.001a.644.644 0 0 1 .017.082l.002.017a.643.643 0 0 1 .005.068zm-1.402 7.821v-6.573l-.79.483a.712.712 0 0 1-.967-.213.671.671 0 0 1 .22-.941l.873-.535-9.973-5.514-2.302 1.41 10.339 5.715a.68.68 0 0 1 .355.593v6.95zm8.59-9.912a.671.671 0 0 1-.22.94l-5.19 3.18a.714.714 0 0 1-.968-.214.671.671 0 0 1 .22-.94l5.192-3.18c.327-.2.76-.105.967.214zm-13.047 7.991a.671.671 0 0 1-.22.94l-5.192 3.18a.715.715 0 0 1-.72.016l-11.357-6.278a.672.672 0 0 1-.263-.93.712.712 0 0 1 .956-.257l10.992 6.078 4.837-2.963c.327-.2.76-.105.967.214zm13.048-5.263a.671.671 0 0 1-.22.941l-5.192 3.18a.715.715 0 0 1-.967-.214.671.671 0 0 1 .22-.94l5.192-3.18c.327-.201.76-.106.967.213zm-13.048 7.992a.671.671 0 0 1-.22.94l-5.192 3.18a.717.717 0 0 1-.72.016l-11.357-6.279a.672.672 0 0 1-.263-.93.712.712 0 0 1 .956-.256l10.992 6.077 4.837-2.962c.327-.2.76-.105.967.214zm13.048-5.263a.671.671 0 0 1-.22.94l-5.192 3.18a.714.714 0 0 1-.967-.214.671.671 0 0 1 .22-.94l5.192-3.18c.327-.2.76-.105.967.214zm-13.048 7.992a.671.671 0 0 1-.22.94l-5.192 3.18a.715.715 0 0 1-.72.016l-11.357-6.28a.672.672 0 0 1-.263-.93.712.712 0 0 1 .956-.255l10.992 6.077 4.837-2.963c.327-.2.76-.104.967.215z"/></defs><g><g transform="translate(-1213 -911)"><use fill="#236fbd" xlink:href="#s5qqa"/></g></g></svg>