<svg xmlns="http://www.w3.org/2000/svg" xmlns:xlink="http://www.w3.org/1999/xlink" width="43" height="43" viewBox="0 0 43 43"><defs><path id="r3vqa" d="M562.34 1990.438h4.62v5.72h-2.69v-3.04h-11.767v-3.397h-14.019v3.258H526.72v3.178h-2.692v-5.859h4.612l-.86-10.968-.982-1.144a3.15 3.15 0 0 1-.727-2.017v-6.279c0-.279.122-.55.342-.724 1.2-.987 2.498-1.633 2.761-1.764.027-.018.044-.044.044-.07v-.812a2.08 2.08 0 0 1-.28-.751c-.106-.009-.237-.157-.386-.673-.184-.655-.018-.794.149-.794a1.162 1.162 0 0 1-.044-.166c-.061-.323-.079-.63 0-.926.088-.393.307-.707.544-.952.149-.166.315-.305.5-.419.148-.105.315-.192.49-.253.14-.052.29-.079.448-.087.49-.044.859.078 1.122.235.394.219.543.507.543.507s.903.07.596 1.895c-.017.052-.026.113-.043.166.166 0 .342.13.157.794-.149.516-.28.664-.385.673a2.142 2.142 0 0 1-.28.75v.813c0 .035.017.06.043.07.263.122 1.56.777 2.762 1.764.219.174.342.445.342.724v6.262c0 .742-.263 1.467-.746 2.034l-.99 1.17-.85 10.968h2.884v-3.257h7.347l-.965-12.356-1.122-1.31a3.557 3.557 0 0 1-.807-2.244v-6.978c0-.305.14-.602.386-.803a16.517 16.517 0 0 1 3.069-1.965c.035-.017.052-.043.052-.078v-.9a2.647 2.647 0 0 1-.306-.838c-.114-.009-.263-.166-.43-.742-.21-.725-.018-.874.167-.882-.018-.07-.035-.131-.044-.192-.08-.367-.097-.708-.009-1.03.105-.438.342-.787.605-1.057.167-.184.36-.332.561-.463.167-.114.342-.21.544-.28.149-.052.315-.087.49-.096.544-.043.948.088 1.246.262.438.236.604.56.604.56s1.009.069.667 2.104c-.009.07-.026.13-.044.192.193 0 .386.148.175.882-.166.576-.315.733-.43.742a2.22 2.22 0 0 1-.306.838v.9a.128.128 0 0 0 .052.078c.29.149 1.728.873 3.07 1.965.245.192.385.49.385.803v6.96c0 .83-.29 1.624-.824 2.262l-1.096 1.3-.965 12.357h7.347v3.397h2.902l-.868-11.116-1.008-1.18a3.15 3.15 0 0 1-.728-2.016v-6.279c0-.28.123-.55.342-.725 1.202-.986 2.499-1.633 2.762-1.764.026-.017.044-.043.044-.07v-.811a2.08 2.08 0 0 1-.28-.751c-.106-.01-.237-.158-.386-.673-.184-.655-.018-.794.149-.794a1.178 1.178 0 0 1-.044-.166c-.061-.323-.079-.63 0-.926.088-.393.307-.707.543-.952.15-.166.316-.305.5-.42.15-.104.316-.191.491-.252.14-.053.29-.079.447-.088.491-.043.86.079 1.123.236.394.219.543.507.543.507s.903.07.596 1.895c-.017.052-.026.113-.044.166.167 0 .342.13.158.794-.149.515-.28.664-.386.673a2.138 2.138 0 0 1-.28.75v.813c0 .035.018.06.044.07.263.122 1.56.777 2.762 1.763.219.175.342.446.342.725v6.261c0 .743-.264 1.467-.746 2.035l-.99 1.17zm-2.393-20.923l-.482 4.07.745.829.736-.83-.482-4.069c.982-1.336-.07-1.406-.254-1.406s-1.228.061-.263 1.406zm-14.756-5.737l-.534 4.523.832.917.816-.917-.535-4.523c1.087-1.494-.079-1.563-.28-1.563-.202 0-1.368.07-.299 1.563zm-14.685 5.737l-.482 4.07.745.829.737-.83-.483-4.069c.982-1.336-.07-1.406-.254-1.406s-1.236.061-.263 1.406z"/></defs><g><g transform="translate(-524 -1954)"><use fill="#fff" xlink:href="#r3vqa"/></g></g></svg>