<svg xmlns="http://www.w3.org/2000/svg" xmlns:xlink="http://www.w3.org/1999/xlink" width="24" height="26" viewBox="0 0 24 26"><defs><path id="jhu1a" d="M413.293 728.221a1.243 1.243 0 0 1-1.803-.036l-5.808-6.281a9.422 9.422 0 0 1-5.602 1.84c-5.392 0-9.78-4.562-9.78-10.168 0-5.606 4.388-10.168 9.78-10.168 5.391 0 9.778 4.562 9.778 10.168 0 2.4-.812 4.705-2.294 6.537l5.765 6.233a1.365 1.365 0 0 1-.036 1.875zm-20.441-14.645c0 4.144 3.242 7.515 7.228 7.515 3.985 0 7.227-3.37 7.227-7.515 0-4.144-3.242-7.515-7.227-7.515-3.986 0-7.228 3.371-7.228 7.515z"/></defs><g><g transform="translate(-390 -703)"><use fill="#73d453" xlink:href="#jhu1a"/></g></g></svg>