<svg xmlns="http://www.w3.org/2000/svg" xmlns:xlink="http://www.w3.org/1999/xlink" width="28" height="29" viewBox="0 0 28 29"><defs><path id="qgi6a" d="M415.971 608.684c0 3.6-7.028 5.484-13.97 5.484-6.943 0-13.973-1.884-13.973-5.484 0-2.455 3.265-4.11 7.543-4.917.436.702.912 1.433 1.427 2.194-4.335.647-6.553 2.033-6.553 2.723 0 .918 3.931 3.071 11.555 3.071s11.555-2.153 11.555-3.071c0-.69-2.218-2.076-6.553-2.723.515-.76.99-1.492 1.427-2.194 4.278.806 7.542 2.462 7.542 4.917zm-15.562-1.034c-2.377-3.24-6.58-9.426-6.58-12.658 0-4.507 3.658-8.16 8.172-8.16 4.512 0 8.17 3.653 8.17 8.16 0 3.233-4.204 9.418-6.58 12.658a1.972 1.972 0 0 1-3.182 0zm1.591-9.425a3.396 3.396 0 0 0 3.398-3.394 3.396 3.396 0 0 0-3.398-3.394 3.396 3.396 0 0 0-3.399 3.394 3.395 3.395 0 0 0 3.4 3.394z"/></defs><g><g transform="translate(-388 -586)"><use fill="#73d453" xlink:href="#qgi6a"/></g></g></svg>