<svg xmlns="http://www.w3.org/2000/svg" xmlns:xlink="http://www.w3.org/1999/xlink" width="26" height="25" viewBox="0 0 26 25"><defs><path id="oj9oa" d="M395.412 476.71c0-4.998 2.5-6.526 5.586-6.526 3.085 0 5.585 1.528 5.585 6.525 0 3.604-2.5 6.526-5.585 6.526s-5.586-2.922-5.586-6.526zm17.813 17.466c-.26.4-.702.64-1.18.64H389.95a1.405 1.405 0 0 1-1.288-1.977l2.818-6.336c.13-.29.356-.53.638-.677l4.373-2.272a.283.283 0 0 1 .3.025 6.937 6.937 0 0 0 4.206 1.427 6.937 6.937 0 0 0 4.205-1.427.282.282 0 0 1 .3-.025l4.374 2.272c.282.147.508.387.637.677l2.818 6.336a1.4 1.4 0 0 1-.107 1.337z"/></defs><g><g transform="translate(-388 -470)"><use fill="#73d453" xlink:href="#oj9oa"/></g></g></svg>