<svg xmlns="http://www.w3.org/2000/svg" xmlns:xlink="http://www.w3.org/1999/xlink" width="37" height="37" viewBox="0 0 37 37"><defs><path id="6486a" d="M969.552 2291.063l-.208-1.566 4.898-4.899.492 3.706 3.705.492-4.898 4.899-1.566-.209-9.677 9.679a3.478 3.478 0 0 1-3.347 4.4 3.478 3.478 0 0 1-3.474-3.475 3.478 3.478 0 0 1 3.474-3.475c.32 0 .626.045.924.127zm-15.328 8.3a6.686 6.686 0 1 0 11.399 4.347l2.863-2.864a10.07 10.07 0 0 1-2.415 10.365c-3.93 3.93-10.31 3.93-14.24 0-3.929-3.93-3.929-10.313 0-14.243a10.054 10.054 0 0 1 10.356-2.415l-2.863 2.863a6.65 6.65 0 0 0-5.1 1.946zm19.458-3.722c3.72 6.488 2.811 14.913-2.728 20.454-6.628 6.636-17.378 6.636-24.013 0-6.635-6.63-6.635-17.382 0-24.018 5.539-5.54 13.963-6.45 20.45-2.73l-2.737 2.738c-4.935-2.342-11.011-1.477-15.096 2.61-5.19 5.19-5.19 13.6 0 18.79 5.188 5.19 13.598 5.19 18.786 0 4.086-4.086 4.958-10.163 2.61-15.1z"/></defs><g><g transform="translate(-942 -2284)"><use fill="#fff" xlink:href="#6486a"/></g></g></svg>