<svg xmlns="http://www.w3.org/2000/svg" xmlns:xlink="http://www.w3.org/1999/xlink" width="43" height="45" viewBox="0 0 43 45"><defs><path id="fpata" d="M552.263 2624.385l-2.17.117a11.574 11.574 0 0 1-1.523 4.291l1.621 1.46a.957.957 0 0 1 .072 1.353l-1.747 1.947a.954.954 0 0 1-1.35.073l-1.613-1.46a11.574 11.574 0 0 1-4.107 1.956l.117 2.172a.96.96 0 0 1-.91 1.01l-2.611.135a.959.959 0 0 1-1.009-.91l-.117-2.173a11.552 11.552 0 0 1-4.287-1.524l-1.459 1.614a.954.954 0 0 1-1.35.072l-1.946-1.749a.957.957 0 0 1-.072-1.352l1.459-1.614a11.596 11.596 0 0 1-1.955-4.111l-2.17.117a.959.959 0 0 1-1.009-.91l-.144-2.615a.96.96 0 0 1 .91-1.01l2.17-.108c.216-1.496.72-2.948 1.522-4.291l-1.612-1.461a.957.957 0 0 1-.072-1.352l1.756-1.948a.954.954 0 0 1 1.351-.072l1.603 1.46a11.573 11.573 0 0 1 4.107-1.956l-.117-2.172a.959.959 0 0 1 .91-1.01l2.612-.136a.958.958 0 0 1 1.008.902l.117 2.173c1.496.216 2.945.721 4.287 1.523l1.46-1.613a.954.954 0 0 1 1.35-.072l1.946 1.749a.957.957 0 0 1 .072 1.352l-1.46 1.614a11.595 11.595 0 0 1 1.955 4.111l2.17-.117a.959.959 0 0 1 1.01.91l.135 2.615a.959.959 0 0 1-.91 1.01zm-10.168-5.464a5.252 5.252 0 0 0-7.422.388 5.273 5.273 0 0 0 .388 7.429 5.252 5.252 0 0 0 7.421-.388 5.265 5.265 0 0 0-.387-7.429zm14.419 27.21l-.622 1.505a.6.6 0 0 1-.783.325l-1.252-.514a7.198 7.198 0 0 1-2 2.01l.523 1.253a.6.6 0 0 1-.324.785l-1.504.63a.6.6 0 0 1-.784-.324l-.522-1.253a7.107 7.107 0 0 1-2.828.01l-.514 1.252a.6.6 0 0 1-.783.325l-1.504-.622a.6.6 0 0 1-.324-.785l.513-1.253a7.322 7.322 0 0 1-2.008-2.001l-1.252.523a.6.6 0 0 1-.784-.325l-.63-1.505a.6.6 0 0 1 .324-.785l1.252-.523a7.133 7.133 0 0 1-.01-2.83l-1.251-.515a.6.6 0 0 1-.324-.784l.621-1.505a.6.6 0 0 1 .784-.325l1.251.514a7.324 7.324 0 0 1 2-2.01l-.522-1.254a.6.6 0 0 1 .324-.784l1.504-.631a.6.6 0 0 1 .783.324l.523 1.253a7.11 7.11 0 0 1 2.828-.009l.513-1.253a.6.6 0 0 1 .784-.324l1.504.622a.6.6 0 0 1 .324.784l-.513 1.253a7.32 7.32 0 0 1 2.008 2.002l1.252-.523a.6.6 0 0 1 .783.324l.63 1.506a.6.6 0 0 1-.323.784l-1.252.523c.189.92.198 1.876.009 2.831l1.252.514a.6.6 0 0 1 .324.784zm-7.448-5.725a3.267 3.267 0 0 0-4.27 1.785 3.272 3.272 0 1 0 6.053 2.488 3.28 3.28 0 0 0-1.783-4.273zm17.238-8.998v1.28a.465.465 0 0 1-.469.469h-1.062a5.532 5.532 0 0 1-.847 2.056l.748.748a.48.48 0 0 1 0 .667l-.901.901a.478.478 0 0 1-.666 0l-.748-.748a5.678 5.678 0 0 1-2.054.848v1.063a.465.465 0 0 1-.468.47h-1.279a.465.465 0 0 1-.468-.47v-1.063a5.523 5.523 0 0 1-2.054-.848l-.747.748a.478.478 0 0 1-.666 0l-.901-.901a.48.48 0 0 1 0-.667l.747-.748a5.687 5.687 0 0 1-.846-2.056h-1.063a.465.465 0 0 1-.468-.469v-1.28c0-.262.207-.469.468-.469h1.063a5.534 5.534 0 0 1 .846-2.056l-.747-.748a.48.48 0 0 1 0-.667l.9-.902c.19-.18.487-.18.667 0l.747.749a5.678 5.678 0 0 1 2.054-.848v-1.064c0-.261.207-.468.468-.468h1.28c.26 0 .467.207.467.468v1.064c.721.136 1.424.424 2.054.848l.748-.749c.189-.18.486-.18.666 0l.9.902a.48.48 0 0 1 0 .667l-.747.748c.423.632.703 1.335.847 2.056h1.062c.262 0 .469.207.469.469zm-5.296-1.181c-1-1.001-2.63-1.001-3.63 0-1 1-1 2.632 0 3.633 1 1 2.63 1 3.63 0s1-2.633 0-3.633z"/></defs><g><g transform="translate(-524 -2608)"><use fill="#fff" xlink:href="#fpata"/></g></g></svg>