<svg xmlns="http://www.w3.org/2000/svg" xmlns:xlink="http://www.w3.org/1999/xlink" width="38" height="38" viewBox="0 0 38 38"><defs><path id="6ioba" d="M955.231 1962.41a3.344 3.344 0 0 1-3.339 3.341 3.344 3.344 0 0 1-3.339-3.341c0-1.843 1.498-3.416 3.34-3.416 1.84 0 3.338 1.573 3.338 3.416zm-2.226 12.326v2.85l5.157 1.72a2.24 2.24 0 0 1 1.407 1.408l2.226 6.682a2.23 2.23 0 0 1-2.02 2.933h5.473v-3.342c0-.615.498-1.114 1.113-1.114h10.166v-7.335l-.326.326a1.114 1.114 0 0 1-1.574-1.575l2.224-2.226a1.116 1.116 0 0 1 1.577 0l2.225 2.227a1.114 1.114 0 0 1-1.574 1.574l-.326-.326v8.45c0 .615-.498 1.113-1.113 1.113h-10.166v3.341c0 .616-.497 1.114-1.113 1.114h-10.017v3.342c0 .615-.498 1.113-1.113 1.113h-11.13a1.113 1.113 0 1 1 0-2.227h4.368a2.232 2.232 0 0 1-2.111-2.593l1.6-9.612c.42.357.884.661 1.413.838l2.805.937-1.427 8.569a2.223 2.223 0 0 1-2.095 1.86h5.464v-3.34c0-.616.498-1.114 1.113-1.114h4.352a2.222 2.222 0 0 1-2.01-1.522l-1.876-5.627-5.622-1.876c-.952-.319-1.522-1.293-1.522-2.051v-11.2c0-2.22 3.16-3.187 4.218-1.07l1.61 3.298h6.415c1.227 0 2.226 1 2.226 2.227a2.23 2.23 0 0 1-2.226 2.228zm-6.678-6.492v8.527l-2.687-2.688a2.232 2.232 0 0 1 0-3.15z"/></defs><g><g transform="translate(-943 -1959)"><use fill="#fff" xlink:href="#6ioba"/></g></g></svg>