<svg xmlns="http://www.w3.org/2000/svg" xmlns:xlink="http://www.w3.org/1999/xlink" width="44" height="44" viewBox="0 0 44 44"><defs><path id="5dpca" d="M1386.894 2290.096c.215 0 .414.036.595.095.497.346.855.541.954.934.02.083.03.164.03.247 0 .697-.449 1.24-1.737 1.24-.915 0-1.577-.58-1.577-1.276 0-.682.82-1.25 1.735-1.24zm.083-1.568c-.614-.02-1.2-.688-1.306-1.495-.104-.806.308-1.428.923-1.41.614.02 1.199.67 1.306 1.477.104.806-.307 1.444-.923 1.428zm-5.86 7.4l2.19-2.192c-1.036-1.251-1.686-2.84-1.686-4.596a7.24 7.24 0 1 1 7.238 7.239c-1.755 0-3.34-.648-4.596-1.69l-2.19 2.192c-.3-.337-.615-.655-.955-.954zm8.828-8.619h1.45v1.45h.575v-1.45h1.447v-.572h-1.447v-1.452h-.575v1.452h-1.45zm-2.888 2.559c-.136 0-.27.006-.414.006-1.328 0-2.345.844-2.345 1.72 0 .858 1.116 1.4 2.443 1.4 1.512 0 2.345-.858 2.345-1.72 0-.69-.203-1.105-.833-1.55-.218-.153-.63-.526-.63-.745 0-.256.073-.379.457-.68.398-.31.676-.743.676-1.247 0-.602-.267-1.19-.77-1.382h.758l.535-.385h-2.387c-1.07 0-2.077.815-2.077 1.75 0 .96.728 1.737 1.818 1.737.075 0 .148-.003.221-.01a.974.974 0 0 0-.12.448c0 .267.141.485.323.658zm9.042 28.99a7.24 7.24 0 0 1-14.478 0c0-1.753.65-3.342 1.69-4.595l-2.193-2.191c.34-.299.655-.616.955-.954l2.19 2.191c1.256-1.04 2.841-1.691 4.596-1.691a7.243 7.243 0 0 1 7.24 7.24zm-9.3-1.211h-1.435v4.592h1.435zm.122-1.371c-.011-.451-.336-.796-.866-.796-.529 0-.877.344-.877.796 0 .447.338.798.859.798h.008c.54 0 .876-.356.876-.798zm5.62 5.963v-2.553c0-1.42-.802-2.081-1.82-2.081-.822 0-1.338.448-1.434.765v-.723h-1.611c.02.385 0 4.592 0 4.592h1.611v-2.485c0-.137-.006-.276.035-.376.11-.277.347-.561.775-.561.562 0 .816.424.816 1.044v2.378zm-25.659-10.166l-2.19 2.19c1.038 1.256 1.688 2.842 1.688 4.597a7.24 7.24 0 0 1-7.239 7.24 7.24 7.24 0 0 1 0-14.479c1.754 0 3.342.648 4.595 1.69l2.19-2.191c.3.336.617.653.956.953zm-4.585 5.472a3.34 3.34 0 0 0 .814-.84 3.349 3.349 0 0 1-.937.256c.337-.2.595-.52.717-.904-.315.19-.663.325-1.034.397a1.625 1.625 0 0 0-1.188-.516 1.632 1.632 0 0 0-1.587 2.002 4.62 4.62 0 0 1-3.357-1.704c-.14.243-.22.52-.22.82 0 .566.287 1.064.723 1.356a1.599 1.599 0 0 1-.736-.205v.023c0 .789.562 1.448 1.306 1.598a1.7 1.7 0 0 1-.735.028 1.63 1.63 0 0 0 1.52 1.13 3.282 3.282 0 0 1-2.413.673c.72.459 1.577.733 2.497.733 2.995 0 4.634-2.485 4.634-4.635 0-.073-.001-.14-.004-.212zm-10.396-28.404a7.24 7.24 0 0 1 14.479 0c0 1.755-.65 3.345-1.688 4.597l2.19 2.19c-.34.3-.656.616-.956.954l-2.19-2.191c-1.253 1.041-2.84 1.69-4.595 1.69-4 0-7.24-3.245-7.24-7.24zm5.518.002h.763v3.69h1.527v-3.69h1.018l.135-1.273h-1.153l.001-.638c0-.329.032-.506.509-.506h.637v-1.274h-1.019c-1.224 0-1.655.618-1.655 1.655v.762h-.763zm23.843 20.653c-1.534 0-4.7 1.764-6.685 2.094l-.252.008-.653.017-.228.01c-2.724-.233-4.09-2.129-6.709-2.129l.538-2.287c.176-.17.388-.305.617-.428.388-.206.77-.418 1.165-.603.38-.186.777-.34 1.169-.509.369-.155.74-.3 1.105-.46a.3.3 0 0 0 .154-.158c.08-.204.152-.416.214-.624.05-.162.081-.321.288-.364.052-.014.113-.1.123-.16.042-.307.073-.616.097-.927a.314.314 0 0 0-.076-.2 1.996 1.996 0 0 1-.482-1.056c-.032-.199-.143-.39-.202-.585a11.117 11.117 0 0 1-.202-.804c-.023-.1-.01-.202-.027-.304-.024-.147-.017-.259.156-.312.05-.015.088-.132.09-.204.01-.43.002-.327.005-.756.003-.264 0-.53.02-.798.036-.503.334-.86.707-1.167.544-.45 1.193-.66 1.865-.815.35-.084.71-.13 1.068-.193.095-.015.194-.002.294-.002.012.027.03.05.047.073-.075.057-.158.1-.222.167-.146.145-.133.245.025.378.322.274.645.549.959.83.277.246.384.574.384.94.003.629.003.722.003 1.35-.003.127-.011.253.149.31.034.014.067.083.065.123-.028.323-.062.645-.094.966-.003.01-.005.026-.01.034-.29.42-.328.942-.534 1.395-.01.018-.014.035-.027.048-.383.45-.264.997-.271 1.513 0 .054.039.138.08.154.157.07.194.204.238.347.068.223.135.448.23.66.037.078.141.147.23.18 1.177.45 2.343.933 3.469 1.509.226.114.42.253.584.423z"/></defs><g><g transform="translate(-1352 -2282)"><use fill="#fff" xlink:href="#5dpca"/></g></g></svg>