<svg xmlns="http://www.w3.org/2000/svg" xmlns:xlink="http://www.w3.org/1999/xlink" width="36" height="36" viewBox="0 0 36 36"><defs><path id="m5l2a" d="M542.512 2297.749v9.001a.75.75 0 0 1-.75.75h-3a.75.75 0 0 1-.75-.75v-9.001a.75.75 0 0 1 .75-.75h3a.75.75 0 0 1 .75.75zm-6 4.5v4.501a.75.75 0 0 1-.75.75h-3a.75.75 0 0 1-.75-.75v-4.5a.75.75 0 0 1 .75-.75h3a.75.75 0 0 1 .75.75zm12-9v13.501a.75.75 0 0 1-.75.75h-3a.75.75 0 0 1-.75-.75v-13.502a.75.75 0 0 1 .75-.75h3a.75.75 0 0 1 .75.75zm13.06 27.314a1.496 1.496 0 0 1-2.121 0l-8.954-8.955a14.922 14.922 0 0 1-9.485 3.394c-8.271 0-15-6.73-15-15.002 0-8.273 6.729-15.003 15-15.003 8.27 0 15 6.73 15 15.003 0 3.597-1.276 6.9-3.394 9.487l8.954 8.955a1.499 1.499 0 0 1 0 2.121zm-8.56-20.563c0-6.618-5.384-12.002-12-12.002-6.617 0-12 5.384-12 12.002 0 6.617 5.383 12.001 12 12.001 6.616 0 12-5.384 12-12.001z"/></defs><g><g transform="translate(-526 -2285)"><use fill="#fff" xlink:href="#m5l2a"/></g></g></svg>