<svg xmlns="http://www.w3.org/2000/svg" xmlns:xlink="http://www.w3.org/1999/xlink" width="45" height="41" viewBox="0 0 45 41"><defs><path id="c3jja" d="M966.837 2620.225v1.306a.48.48 0 0 1-.477.478h-1.09a5.865 5.865 0 0 1-.874 2.098l.766.766c.189.18.189.486 0 .676l-.928.927a.473.473 0 0 1-.676 0l-.765-.765a5.707 5.707 0 0 1-2.1.873v1.09a.48.48 0 0 1-.477.478h-1.306a.48.48 0 0 1-.477-.477h-.01v-1.081a5.864 5.864 0 0 1-2.098-.874l-.766.766a.473.473 0 0 1-.676 0l-.9-.928a.473.473 0 0 1 0-.676l.765-.766a5.706 5.706 0 0 1-.874-2.098h-1.09a.48.48 0 0 1-.477-.478v-1.306a.48.48 0 0 1 .477-.478h1.09c.154-.765.46-1.477.874-2.098l-.765-.766a.473.473 0 0 1 0-.676l.927-.928c.18-.189.487-.189.676 0l.766.766a5.708 5.708 0 0 1 2.099-.874v-1.09a.48.48 0 0 1 .477-.477h1.306a.48.48 0 0 1 .478.477v1.081a5.87 5.87 0 0 1 2.099.874l.765-.766c.18-.189.487-.189.676 0l.91.928c.189.18.189.487 0 .676l-.766.766c.424.621.72 1.333.874 2.099h1.09a.48.48 0 0 1 .478.477zm-4.639.657c0-1.45-1.18-2.63-2.63-2.63s-2.63 1.18-2.63 2.63 1.18 2.63 2.63 2.63 2.63-1.18 2.63-2.63zm-16.521 5.207a3.077 3.077 0 0 0-.982-.198c0-.054 0-.108-.009-.162l-.072-.55c-.108-.81-.577-2.333-.757-3.17.559.198.883.603 1.027 1.162.19.693.685 2.17.793 2.918zm29.601-4.09c-.18.838-.648 2.36-.756 3.171l-.072.55c-.01.054-.01.108-.01.162a3.344 3.344 0 0 0-.981.198c.108-.739.603-2.225.792-2.928.144-.558.469-.963 1.027-1.153zm-12.774-11.746l-2.73 1.874c-.09.063-.206-.01-.206-.118V2611c-5.45 0-9.882 4.433-9.882 9.882a9.908 9.908 0 0 0 4.08 8l-1.018 1.405c-3-2.18-4.792-5.693-4.792-9.405 0-6.404 5.207-11.611 11.612-11.611v-1.01a.13.13 0 0 1 .207-.107l2.73 1.874a.135.135 0 0 1 0 .225zm8.675 10.63c0 6.404-5.206 11.61-11.62 11.62v1.009a.13.13 0 0 1-.207.108l-2.73-1.874a.135.135 0 0 1 0-.225l2.73-1.874a.13.13 0 0 1 .207.109v1.008c5.45 0 9.882-4.432 9.882-9.882a9.91 9.91 0 0 0-4.08-7.999l1.026-1.405c3 2.18 4.792 5.693 4.792 9.404zm10.46.107l-1.145 11.107-.063.406c-.207 1.387-.865 2.55-1.838 3.576l-6.576 7.918-.126 3.649a.592.592 0 0 1-.585.594l-6.919.036a.592.592 0 0 1-.594-.585l-.244-4.423a9.767 9.767 0 0 1-.072-1.297c.01-.45.036-.757.036-.757.325-1.387.811-4.072 4.496-6.72a6.787 6.787 0 0 0 1.126-1.09l4.09-5.261c.423-.72 1.432-.964 2.206-.486.775.477 1.018 1.486.595 2.198l-3.937 6.422a.434.434 0 0 0 .73.469l.162-.243s2.973-4.072 4.45-7.288c.27-.586.424-1.18.46-1.82.009-.099.018-.234.018-.333.036-1.46.279-3.55.522-5 .063-.405.27-1.927.703-2.414.603-.684 1.414-.531 1.928-.117.432.343.621.901.576 1.46zm-38.08 5.027c-.008.01-.017.018-.026.036a2.976 2.976 0 0 0-.622.288 3.34 3.34 0 0 0-.441.334c0-.126-.01-.243-.01-.37-.017-1.198-.323-3.468-.54-4.72a9.686 9.686 0 0 0-.26-1.162c.567.19.9.595 1.044 1.153.297 1.126.703 3.297.856 4.441zm12.036 17.233l-.243 4.423a.598.598 0 0 1-.595.585l-6.918-.036a.598.598 0 0 1-.586-.594l-.126-3.649-6.576-7.918c-.973-1.027-1.63-2.18-1.838-3.576l-.063-.405-1.144-11.107c-.063-.541.135-1.108.559-1.45.513-.415 1.324-.568 1.928.116.423.487.63 2.01.702 2.414.243 1.45.478 3.532.523 5 .009.1.009.234.018.333.036.64.189 1.234.46 1.82 1.486 3.225 4.458 7.288 4.458 7.288l.162.243a.434.434 0 0 0 .73-.468l-3.936-6.423c-.424-.712-.18-1.73.594-2.198.775-.469 1.784-.226 2.207.486l4.09 5.26c.27.343.775.839 1.126 1.09 3.675 2.658 4.17 5.343 4.495 6.72 0 0 .036.307.036.758.01.369-.009.837-.063 1.288zm21.881-22.827a7.952 7.952 0 0 0-.261 1.162c-.207 1.252-.513 3.513-.54 4.72 0 .127-.01.244-.01.37a2.71 2.71 0 0 0-.44-.334 3.246 3.246 0 0 0-.622-.288.122.122 0 0 1-.027-.036c.153-1.144.558-3.315.855-4.432.145-.567.478-.973 1.045-1.162z"/></defs><g><g transform="translate(-937 -2608)"><use fill="#fff" xlink:href="#c3jja"/></g></g></svg>