<svg xmlns="http://www.w3.org/2000/svg" xmlns:xlink="http://www.w3.org/1999/xlink" width="36" height="36" viewBox="0 0 36 36"><defs><path id="shsta" d="M1387.977 2623.668v2.02a.72.72 0 0 1-.546.698l-.683.171.362.605a.72.72 0 0 1-.108.88l-1.427 1.427a.722.722 0 0 1-.88.108l-.605-.362-.17.683a.72.72 0 0 1-.7.546h-2.019a.72.72 0 0 1-.699-.546l-.17-.683-.605.362a.722.722 0 0 1-.88-.108l-1.427-1.427a.72.72 0 0 1-.109-.88l.362-.605-.683-.17a.72.72 0 0 1-.546-.7v-2.019c0-.33.225-.62.546-.699l.683-.17-.362-.606a.72.72 0 0 1 .109-.88l1.427-1.426a.722.722 0 0 1 .88-.109l.604.362.171-.683a.72.72 0 0 1 .7-.546h2.018c.331 0 .62.225.7.546l.17.683.605-.362a.72.72 0 0 1 .88.109l1.427 1.427a.72.72 0 0 1 .108.88l-.362.604.683.171a.72.72 0 0 1 .546.7zm-3.604 1.01c0-1.193-.97-2.163-2.162-2.163-1.193 0-2.163.97-2.163 2.163 0 1.192.97 2.162 2.163 2.162 1.192 0 2.162-.97 2.162-2.162zm-10.812 3.604a.72.72 0 0 1-.72.72h-10.092a.72.72 0 1 1 0-1.441h10.091a.72.72 0 0 1 .721.72zm-4.325 2.883a.72.72 0 0 1-.72.72h-5.767a.72.72 0 1 1 0-1.441h5.766a.72.72 0 0 1 .721.72zm23.066-13.696v20.183a2.887 2.887 0 0 1-2.883 2.884h-10.094c.032 1.152.253 2.994 1.075 3.858.302.319.648.466 1.09.466a.72.72 0 1 1 0 1.442h-12.975a.72.72 0 1 1 0-1.442c.442 0 .789-.148 1.091-.466.825-.869 1.045-2.709 1.075-3.858h-10.095a2.887 2.887 0 0 1-2.883-2.884v-20.183a2.887 2.887 0 0 1 2.883-2.883h4.325v-2.162a.72.72 0 0 1 .721-.721h4.325a.72.72 0 0 1 .72.721v2.162h18.742a2.886 2.886 0 0 1 2.883 2.883zm-15.854 20.183c0-.797-.649-1.446-1.445-1.446-.797 0-1.446.65-1.446 1.446 0 .797.649 1.446 1.446 1.446.796 0 1.445-.649 1.445-1.446zm12.972-2.883l-.001-17.3h-18.741v1.442h1.441a.721.721 0 0 1 .577 1.153l-4.325 5.767a.72.72 0 0 1-1.153 0l-4.325-5.767a.72.72 0 0 1 .577-1.153h1.441v-1.442h-4.325v17.3z"/></defs><g><g transform="translate(-1357 -2611)"><use fill="#fff" xlink:href="#shsta"/></g></g></svg>