<svg xmlns="http://www.w3.org/2000/svg" xmlns:xlink="http://www.w3.org/1999/xlink" width="29" height="29" viewBox="0 0 29 29"><defs><path id="qjwia" d="M1387.01 1964.547a2.553 2.553 0 0 1-2.55 2.55c-.5 0-.966-.15-1.36-.401l-10.204 10.204c.25.395.401.86.401 1.36a2.553 2.553 0 0 1-2.55 2.55 2.553 2.553 0 0 1-2.55-2.55c0-.5.15-.965.4-1.36l-1.59-1.59c-.394.25-.859.4-1.36.4-.501 0-.966-.15-1.36-.4l-1.59 1.59c.25.395.4.86.4 1.36a2.553 2.553 0 0 1-2.55 2.55 2.553 2.553 0 0 1-2.55-2.55 2.553 2.553 0 0 1 2.55-2.55c.28 0 .544.056.796.14l1.894-1.895a2.515 2.515 0 0 1-.14-.795 2.553 2.553 0 0 1 2.55-2.55 2.553 2.553 0 0 1 2.55 2.55c0 .28-.056.544-.14.795l1.894 1.895a2.338 2.338 0 0 1 1.592 0l10.507-10.508a2.513 2.513 0 0 1-.14-.795 2.553 2.553 0 0 1 2.55-2.55 2.553 2.553 0 0 1 2.55 2.55zm-17.113 18.461v8.002h-3.4v-11.402zm5.145-3.433v11.435h-3.445v-8.002zm-10.245.033v11.402h-4.25a.85.85 0 0 1-.85-.85v-5.1c0-.226.09-.441.25-.6zm15.18-4.889v16.291h-3.167v-13.135zm7.033-4.959v20.4c0 .47-.38.85-.85.85h-4.472v-17.99l3.871-3.86c.532-.536 1.451-.157 1.451.6z"/></defs><g><g transform="translate(-1358 -1962)"><use fill="#fff" xlink:href="#qjwia"/></g></g></svg>