<svg xmlns="http://www.w3.org/2000/svg" xmlns:xlink="http://www.w3.org/1999/xlink" width="66" height="44" viewBox="0 0 66 44"><defs><path id="sdpaa" d="M406.357 3071.297v7.261s2.322 5.005 2.65 9.903c.334 5.004-1.325 9.902-1.325 9.902l3.973-3.3 14.57 12.543-7.285-2.641-1.325 1.98-5.96-6.6-13.245 6.6 4.636-10.562-4.636 3.3-5.96 9.903-1.987-2.64-3.31 2.64 1.986-5.281h-1.987l4.636-8.582-13.907 13.863-.663-5.281-1.986 1.32-1.987-1.32-3.974 5.281.663-5.941-2.65 2.64-1.324-1.98-5.96 3.961 22.516-29.708 7.285 5.282 16.556-17.825 20.005 21.165"/></defs><g><g transform="translate(-360 -3066)"><use fill="#ccc" xlink:href="#sdpaa"/></g></g></svg>