<svg xmlns="http://www.w3.org/2000/svg" xmlns:xlink="http://www.w3.org/1999/xlink" width="54" height="35" viewBox="0 0 54 35"><defs><path id="oq88a" d="M396.873 73.204v5.85s1.871 4.032 2.135 7.978c.27 4.03-1.067 7.977-1.067 7.977l3.203-2.66 11.746 10.105-5.873-2.127-1.068 1.595-4.805-5.318-10.678 5.318 3.737-8.509-3.737 2.66-4.805 7.977-1.602-2.128-2.67 2.128 1.603-4.255h-1.602l3.737-6.913-11.212 11.168-.534-4.255-1.601 1.064-1.602-1.064-3.204 4.255.534-4.787-2.135 2.128-1.068-1.596-4.805 3.191 18.152-23.932 5.873 4.255 13.348-14.36L413 86"/><path id="oq88b" d="M375.837 92.323l2.403-1.914.48-3.35h1.442l.48.478 1.442-2.393-4.325-2.872-2.402 2.393.96 2.393z"/></defs><g><g transform="translate(-359 -69)"><use fill="#236fbd" xlink:href="#oq88a"/></g><g transform="translate(-359 -69)"><use fill="#fefefe" xlink:href="#oq88b"/></g></g></svg>